<svg xmlns="http://www.w3.org/2000/svg" width="1080" height="1350" viewBox="0 0 1080 1350"><defs>
    <pattern id="grain" width="8" height="8" patternUnits="userSpaceOnUse"><circle cx="1" cy="1" r=".7" fill="#17392C" opacity=".10"/></pattern>
    <filter id="shadow" x="-30%" y="-30%" width="160%" height="170%"><feDropShadow dx="0" dy="14" stdDeviation="16" flood-color="#17392C" flood-opacity=".18"/></filter></defs>
    <rect width="1080" height="1350" fill="#F4E7D6"/><rect width="1080" height="1350" fill="url(#grain)"/>
    <g transform="translate(64 55)"><circle cx="22" cy="22" r="22" fill="#F8CF3A"/><path d="M11 24c7-7 15-7 22 0M15 30c5-5 10-5 15 0" fill="none" stroke="#17392C" stroke-width="3.5" stroke-linecap="round"/><circle cx="22" cy="35" r="2.6" fill="#17392C"/><text x="59" y="31" fill="#17392C" font-family="Arial,Helvetica,sans-serif" font-size="31" font-weight="800">amivoy</text></g>
    <text x="1016" y="84" fill="#17392C" font-family="Arial,Helvetica,sans-serif" font-size="14" font-weight="800" text-anchor="end" letter-spacing="1.5">90 JOURS · POST 17</text>
    <path d="M64 116h952" stroke="#17392C" opacity=".25"/>
    <path d="M64 1278h952" stroke="#17392C" opacity=".25"/>
    <text x="65" y="1318" fill="#17392C" font-family="Arial,Helvetica,sans-serif" font-size="13" font-weight="700" letter-spacing="1.3">JOUR 38  ·  PROJET EN DÉVELOPPEMENT</text>
    <text x="1015" y="1318" fill="#F15E43" font-family="Arial,Helvetica,sans-serif" font-size="14" font-weight="900" text-anchor="end">3/3</text>
    <text x="68" y="178" fill="#F15E43" font-family="Arial,Helvetica,sans-serif" font-size="15" font-weight="800" letter-spacing="2.2">À TOI DE NOUS DIRE</text>
          <text x="68" y="315" fill="#17392C" font-family="Arial,Helvetica,sans-serif" font-size="59" font-weight="900" letter-spacing="-1"><tspan x="68" dy="0">Combien de temps faut-il</tspan><tspan x="68" dy="68.44">à ton groupe pour</tspan><tspan x="68" dy="68.44">confirmer ?</tspan></text>
          <g transform="rotate(-3 520 775)" filter="url(#shadow)"><rect x="75" y="693" width="870" height="159" rx="28" fill="#F8CF3A"/><text x="120" y="759" fill="#17392C" font-family="Arial,Helvetica,sans-serif" font-size="27" font-weight="800" letter-spacing="-1"><tspan x="120" dy="0">Raconte-nous en commentaire.</tspan></text><text x="120" y="809" fill="#F15E43" font-family="Arial,Helvetica,sans-serif" font-size="15" font-weight="800" letter-spacing="1.7">ON LIT VOS RÉPONSES ✳</text></g>
          <text x="69" y="1018" fill="#17392C" font-family="Arial,Helvetica,sans-serif" font-size="16" font-weight="800" letter-spacing="1.5">AMIVOY EST EN DÉVELOPPEMENT</text>
          <text x="69" y="1060" fill="#657368" font-family="Arial,Helvetica,sans-serif" font-size="17" font-weight="500" >Les visuels de maquette sont des pistes de conception.</text></svg>