<svg xmlns="http://www.w3.org/2000/svg" width="1080" height="1080" viewBox="0 0 1080 1080" role="img">
      <rect width="1080" height="1080" fill="#F6EBDD"/>
      <svg x="108" y="0" width="864" height="1080" viewBox="0 0 1080 1350" preserveAspectRatio="xMidYMid meet">
      <defs><pattern id="grain" width="8" height="8" patternUnits="userSpaceOnUse"><circle cx="1" cy="1" r=".7" fill="#17392C" opacity=".09"/></pattern><filter id="shadow" x="-30%" y="-30%" width="160%" height="170%"><feDropShadow dx="0" dy="15" stdDeviation="17" flood-color="#17392C" flood-opacity=".16"/></filter></defs>
      <rect width="1080" height="1350" fill="#F6EBDD"/><rect width="1080" height="1350" fill="url(#grain)"/>
      <g transform="translate(66 55)"><circle cx="22" cy="22" r="22" fill="#F8CF3A"/><path d="M11 24c7-7 15-7 22 0M15 30c5-5 10-5 15 0" fill="none" stroke="#17392C" stroke-width="3.5" stroke-linecap="round"/><circle cx="22.5" cy="35" r="2.6" fill="#17392C"/><text x="59" y="31" fill="#17392C" font-family="Arial,Helvetica,sans-serif" font-size="31" font-weight="800" letter-spacing="-1">amivoy</text></g>
    <text x="1014" y="83" fill="#17392C" font-family="Arial,Helvetica,sans-serif" font-size="14" font-weight="700" text-anchor="end" letter-spacing="2">09 / 09</text>
    <path d="M66 116h948" stroke="#17392C" opacity=".24"/><text x="69" y="169" fill="#F15E43" font-family="Arial,Helvetica,sans-serif" font-size="14" font-weight="800" letter-spacing="2.5">AMIVOY · À VIVRE ENSEMBLE</text><text x="66" y="220" fill="#17392C" font-family="Arial,Helvetica,sans-serif" font-size="66" font-weight="900" letter-spacing="-3">Votre bande.</text><text x="70" y="272" fill="#657368" font-family="Arial,Helvetica,sans-serif" font-size="22" font-weight="500" >Votre prochaine histoire.</text><g transform="translate(54 445)"><circle cx="515" cy="288" r="229" fill="#F8CF3A"/><circle cx="515" cy="288" r="192" fill="none" stroke="#F15E43" stroke-width="5" stroke-dasharray="4 17"/>
 <path d="M329 356q76-132 171-18 70-139 177-13v90H329z" fill="#6A936D"/><path d="M329 389q84-71 171 1 83-87 177-7v32H329z" fill="#17392C"/>
 <circle cx="419" cy="293" r="35" fill="#C77D63" stroke="#F7F1E4" stroke-width="5"/><text x="419" y="300" fill="#F7F1E4" font-family="Arial,Helvetica,sans-serif" font-size="18" font-weight="800" text-anchor="middle">M</text><circle cx="516" cy="252" r="35" fill="#8299AD" stroke="#F7F1E4" stroke-width="5"/><text x="516" y="259" fill="#F7F1E4" font-family="Arial,Helvetica,sans-serif" font-size="18" font-weight="800" text-anchor="middle">L</text><circle cx="610" cy="300" r="35" fill="#D5A943" stroke="#F7F1E4" stroke-width="5"/><text x="610" y="307" fill="#F7F1E4" font-family="Arial,Helvetica,sans-serif" font-size="18" font-weight="800" text-anchor="middle">A</text>
 <path d="M357 411q154 71 316-8" fill="none" stroke="#F15E43" stroke-width="5" stroke-dasharray="3 13" stroke-linecap="round"/>
 <g transform="rotate(-6 514 522)"><rect x="285" y="479" width="460" height="88" rx="24" fill="#17392C"/><text x="515" y="534" fill="#F7F1E4" font-family="Arial,Helvetica,sans-serif" font-size="23" font-weight="900" text-anchor="middle" letter-spacing="1">À VOUS LE PROCHAIN PLAN ✳</text></g>
 <text x="514" y="643" fill="#657368" font-family="Arial,Helvetica,sans-serif" font-size="19" font-weight="700" text-anchor="middle">Sorties · Voyages · Souvenirs</text></g>
      <path d="M66 1279h948" stroke="#17392C" opacity=".24"/>
      <text x="67" y="1318" fill="#17392C" font-family="Arial,Helvetica,sans-serif" font-size="13" font-weight="700" letter-spacing="1.5">TON GROUPE. VOS PLANS. VOS SOUVENIRS.</text>
      <text x="1013" y="1318" fill="#F15E43" font-family="Arial,Helvetica,sans-serif" font-size="15" font-weight="900" text-anchor="end">AMIVOY  ✳</text>
    </svg>
    </svg>