<svg xmlns="http://www.w3.org/2000/svg" width="1080" height="1350" viewBox="0 0 1080 1350"><defs>
    <pattern id="grain" width="8" height="8" patternUnits="userSpaceOnUse"><circle cx="1" cy="1" r=".7" fill="#17392C" opacity=".10"/></pattern>
    <filter id="shadow" x="-30%" y="-30%" width="160%" height="170%"><feDropShadow dx="0" dy="14" stdDeviation="16" flood-color="#17392C" flood-opacity=".18"/></filter></defs>
    <rect width="1080" height="1350" fill="#17392C"/><rect width="1080" height="1350" fill="url(#grain)"/>
    <g transform="translate(64 55)"><circle cx="22" cy="22" r="22" fill="#F8CF3A"/><path d="M11 24c7-7 15-7 22 0M15 30c5-5 10-5 15 0" fill="none" stroke="#17392C" stroke-width="3.5" stroke-linecap="round"/><circle cx="22" cy="35" r="2.6" fill="#17392C"/><text x="59" y="31" fill="#F7F1E4" font-family="Arial,Helvetica,sans-serif" font-size="31" font-weight="800">amivoy</text></g>
    <text x="1016" y="84" fill="#F7F1E4" font-family="Arial,Helvetica,sans-serif" font-size="14" font-weight="800" text-anchor="end" letter-spacing="1.5">90 JOURS · POST 32</text>
    <path d="M64 116h952" stroke="#F7F1E4" opacity=".25"/>
    <path d="M64 1278h952" stroke="#F7F1E4" opacity=".25"/>
    <text x="65" y="1318" fill="#F7F1E4" font-family="Arial,Helvetica,sans-serif" font-size="13" font-weight="700" letter-spacing="1.3">JOUR 73  ·  PROJET EN DÉVELOPPEMENT</text>
    <text x="1015" y="1318" fill="#F8CF3A" font-family="Arial,Helvetica,sans-serif" font-size="14" font-weight="900" text-anchor="end">1/3</text>
    <text x="68" y="175" fill="#F8CF3A" font-family="Arial,Helvetica,sans-serif" font-size="15" font-weight="800" letter-spacing="2.3">IMPRÉVUS</text>
          <g transform="rotate(7 820 555)" filter="url(#shadow)"><rect x="662" y="395" width="325" height="325" rx="42" fill="#F8CF3A"/><rect x="698" y="431" width="253" height="112" rx="30" fill="#17392C"/><path d="M744 542l-14 37 52-36" fill="#17392C"/><circle cx="750" cy="486" r="9" fill="#F15E43"/><circle cx="805" cy="486" r="9" fill="#F7F1E4"/><circle cx="860" cy="486" r="9" fill="#82A888"/><path d="M725 608h177" stroke="#17392C" stroke-width="8" stroke-linecap="round"/><path d="M725 644h122" stroke="#17392C" stroke-width="8" stroke-linecap="round"/></g>
          <text x="66" y="332" fill="#F7F1E4" font-family="Arial,Helvetica,sans-serif" font-size="70" font-weight="900" letter-spacing="-1"><tspan x="66" dy="0">Le plan</tspan><tspan x="66" dy="79.1">change.</tspan><tspan x="66" dy="79.1">Et maintenant</tspan><tspan x="66" dy="79.1">?</tspan></text>
          <text x="70" y="610" fill="#F8CF3A" font-family="Arial,Helvetica,sans-serif" font-size="16" font-weight="800" letter-spacing="1.8">FAIS DÉFILER  →</text></svg>